# xmcd CD database file
#
# Track frame offsets:
#	150
#	15040
#	29677
#	50702
#	69590
#	84867
#	102360
#	116735
#	131187
#	153255
#
# Disc length: 2268 seconds
#
# Revision: 0
# Processed by: cddbd v1.5.1PL0 Copyright (c) Steve Scherf et al.
# Submitted via: CDex 1.51
#
DISCID=7d08da0a
DTITLE=水越恵子 - I'm fine
DYEAR=1900
DGENRE=JPop
TTITLE0=Moonlight and Sweet Night
TTITLE1=カリフォルニア・ダンス
TTITLE2=ジェラシー
TTITLE3=Dear Summer TIme
TTITLE4=Bayside Girl
TTITLE5=愛するmusic
TTITLE6=褐色のほゝ笑み
TTITLE7=Full Moon
TTITLE8=生きがい
TTITLE9=氷の謝肉祭
EXTD=
EXTT0=
EXTT1=
EXTT2=
EXTT3=
EXTT4=
EXTT5=
EXTT6=
EXTT7=
EXTT8=
EXTT9=
PLAYORDER=
